<mxfile host="app.diagrams.net" modified="2021-02-04T10:25:44.217Z" agent="5.0 (Windows)" etag="S9V-IISb7-PMPVKozsye" version="14.2.9" type="github">
  <diagram id="1WhY08_LQHTo31Xq4LZV" name="Page-1">
    <mxGraphModel dx="2441" dy="700" grid="1" gridSize="10" guides="1" tooltips="1" connect="1" arrows="1" fold="1" page="1" pageScale="1" pageWidth="827" pageHeight="1169" math="0" shadow="0">
      <root>
        <mxCell id="0" />
        <mxCell id="1" parent="0" />
        <mxCell id="oMTs-e_EntcNB7B6bXQJ-9" value="ESprite2d" style="swimlane;fontStyle=0;childLayout=stackLayout;horizontal=1;startSize=26;fillColor=none;horizontalStack=0;resizeParent=1;resizeParentMax=0;resizeLast=0;collapsible=1;marginBottom=0;fontSize=9;" parent="1" vertex="1">
          <mxGeometry x="-410" y="570" width="140" height="90" as="geometry" />
        </mxCell>
        <mxCell id="oMTs-e_EntcNB7B6bXQJ-10" value="+ rot: float&#xa;+ pos: Vector2&#xa;+ dim: Vector2&#xa;+ model: Texture2D&#xa;" style="text;strokeColor=none;fillColor=none;align=left;verticalAlign=top;spacingLeft=4;spacingRight=4;overflow=hidden;rotatable=0;points=[[0,0.5],[1,0.5]];portConstraint=eastwest;" parent="oMTs-e_EntcNB7B6bXQJ-9" vertex="1">
          <mxGeometry y="26" width="140" height="64" as="geometry" />
        </mxCell>
        <mxCell id="oMTs-e_EntcNB7B6bXQJ-13" value="EPrimitives" style="swimlane;fontStyle=0;childLayout=stackLayout;horizontal=1;startSize=26;fillColor=none;horizontalStack=0;resizeParent=1;resizeParentMax=0;resizeLast=0;collapsible=1;marginBottom=0;fontSize=9;" parent="1" vertex="1">
          <mxGeometry x="230" y="409" width="140" height="52" as="geometry" />
        </mxCell>
        <mxCell id="oMTs-e_EntcNB7B6bXQJ-14" value="- square: Texture2D&#xa;" style="text;strokeColor=none;fillColor=none;align=left;verticalAlign=top;spacingLeft=4;spacingRight=4;overflow=hidden;rotatable=0;points=[[0,0.5],[1,0.5]];portConstraint=eastwest;" parent="oMTs-e_EntcNB7B6bXQJ-13" vertex="1">
          <mxGeometry y="26" width="140" height="26" as="geometry" />
        </mxCell>
        <mxCell id="oMTs-e_EntcNB7B6bXQJ-22" value="EText" style="swimlane;fontStyle=0;childLayout=stackLayout;horizontal=1;startSize=26;fillColor=none;horizontalStack=0;resizeParent=1;resizeParentMax=0;resizeLast=0;collapsible=1;marginBottom=0;fontSize=9;" parent="1" vertex="1">
          <mxGeometry x="780" y="101" width="140" height="130" as="geometry" />
        </mxCell>
        <mxCell id="oMTs-e_EntcNB7B6bXQJ-23" value="+ pos: Vector2&#xa;+ dim: Vector2&#xa;+ origin: Vector2&#xa;+ font: SpriteFont&#xa;+ txt: string&#xa;+ rot: float&#xa;+ color: Color&#xa;" style="text;strokeColor=none;fillColor=none;align=left;verticalAlign=top;spacingLeft=4;spacingRight=4;overflow=hidden;rotatable=0;points=[[0,0.5],[1,0.5]];portConstraint=eastwest;" parent="oMTs-e_EntcNB7B6bXQJ-22" vertex="1">
          <mxGeometry y="26" width="140" height="104" as="geometry" />
        </mxCell>
        <mxCell id="oMTs-e_EntcNB7B6bXQJ-26" value="ETimer" style="swimlane;fontStyle=0;childLayout=stackLayout;horizontal=1;startSize=26;fillColor=none;horizontalStack=0;resizeParent=1;resizeParentMax=0;resizeLast=0;collapsible=1;marginBottom=0;fontSize=9;" parent="1" vertex="1">
          <mxGeometry x="60" y="411" width="140" height="80" as="geometry" />
        </mxCell>
        <mxCell id="oMTs-e_EntcNB7B6bXQJ-27" value="+ ready: bool&#xa;# ms: int&#xa;# timer: TimeSpan&#xa;" style="text;strokeColor=none;fillColor=none;align=left;verticalAlign=top;spacingLeft=4;spacingRight=4;overflow=hidden;rotatable=0;points=[[0,0.5],[1,0.5]];portConstraint=eastwest;" parent="oMTs-e_EntcNB7B6bXQJ-26" vertex="1">
          <mxGeometry y="26" width="140" height="54" as="geometry" />
        </mxCell>
        <mxCell id="oMTs-e_EntcNB7B6bXQJ-31" value="Globals" style="swimlane;fontStyle=0;childLayout=stackLayout;horizontal=1;startSize=26;fillColor=none;horizontalStack=0;resizeParent=1;resizeParentMax=0;resizeLast=0;collapsible=1;marginBottom=0;fontSize=9;" parent="1" vertex="1">
          <mxGeometry x="20" y="122" width="190" height="210" as="geometry" />
        </mxCell>
        <mxCell id="oMTs-e_EntcNB7B6bXQJ-32" value="+ PassWindow: PassObject&#xa;+ dragging: bool&#xa;+ screenHight: float&#xa;+ screenWidth: float&#xa;+ SystemFont: string&#xa;+ font: SpriteFont&#xa;+ content: ContentManager&#xa;+ spriteBatch: SpriteBatch&#xa;+ primitives: EPrimitives&#xa;+ keyboard: EKeyboard&#xa;+ mouse: EMouseControl&#xa;+ gameTime: GameTime&#xa;&#xa;&#xa;" style="text;strokeColor=none;fillColor=none;align=left;verticalAlign=top;spacingLeft=4;spacingRight=4;overflow=hidden;rotatable=0;points=[[0,0.5],[1,0.5]];portConstraint=eastwest;fontStyle=4" parent="oMTs-e_EntcNB7B6bXQJ-31" vertex="1">
          <mxGeometry y="26" width="190" height="184" as="geometry" />
        </mxCell>
        <mxCell id="oMTs-e_EntcNB7B6bXQJ-34" value="EKeyboard" style="swimlane;fontStyle=0;childLayout=stackLayout;horizontal=1;startSize=26;fillColor=none;horizontalStack=0;resizeParent=1;resizeParentMax=0;resizeLast=0;collapsible=1;marginBottom=0;fontSize=9;" parent="1" vertex="1">
          <mxGeometry x="430" y="407" width="180" height="82" as="geometry" />
        </mxCell>
        <mxCell id="oMTs-e_EntcNB7B6bXQJ-35" value="+ newKeyboard: KeyboardState&#xa;+ oldKeyboard: KeyboardState&#xa;+ pressedKeys: List &lt;EKey&gt;&#xa;&#xa;" style="text;strokeColor=none;fillColor=none;align=left;verticalAlign=top;spacingLeft=4;spacingRight=4;overflow=hidden;rotatable=0;points=[[0,0.5],[1,0.5]];portConstraint=eastwest;" parent="oMTs-e_EntcNB7B6bXQJ-34" vertex="1">
          <mxGeometry y="26" width="180" height="56" as="geometry" />
        </mxCell>
        <mxCell id="oMTs-e_EntcNB7B6bXQJ-38" value="EMouseControl" style="swimlane;fontStyle=0;childLayout=stackLayout;horizontal=1;startSize=26;fillColor=none;horizontalStack=0;resizeParent=1;resizeParentMax=0;resizeLast=0;collapsible=1;marginBottom=0;fontSize=9;" parent="1" vertex="1">
          <mxGeometry x="-170" y="411" width="210" height="150" as="geometry" />
        </mxCell>
        <mxCell id="oMTs-e_EntcNB7B6bXQJ-39" value="+ dragging: bool&#xa;+ rightDrag: bool&#xa;+ newMousePos: Vector2&#xa;+ oldMousePos: Vector2&#xa;+ firstMousePos: Vector2&#xa;+ newMouseAdjustedPos: Vector2&#xa;+ systemCursorPos: Vector2&#xa;+ screenLoc: Vector2&#xa;" style="text;strokeColor=none;fillColor=none;align=left;verticalAlign=top;spacingLeft=4;spacingRight=4;overflow=hidden;rotatable=0;points=[[0,0.5],[1,0.5]];portConstraint=eastwest;" parent="oMTs-e_EntcNB7B6bXQJ-38" vertex="1">
          <mxGeometry y="26" width="210" height="124" as="geometry" />
        </mxCell>
        <mxCell id="oMTs-e_EntcNB7B6bXQJ-42" value="EKey" style="swimlane;fontStyle=0;childLayout=stackLayout;horizontal=1;startSize=26;fillColor=none;horizontalStack=0;resizeParent=1;resizeParentMax=0;resizeLast=0;collapsible=1;marginBottom=0;fontSize=9;" parent="1" vertex="1">
          <mxGeometry x="540" y="540" width="100" height="90" as="geometry" />
        </mxCell>
        <mxCell id="oMTs-e_EntcNB7B6bXQJ-43" value="+ state: int&#xa;+ key: string&#xa;+ print: string&#xa;+ display: string&#xa;" style="text;strokeColor=none;fillColor=none;align=left;verticalAlign=top;spacingLeft=4;spacingRight=4;overflow=hidden;rotatable=0;points=[[0,0.5],[1,0.5]];portConstraint=eastwest;" parent="oMTs-e_EntcNB7B6bXQJ-42" vertex="1">
          <mxGeometry y="26" width="100" height="64" as="geometry" />
        </mxCell>
        <mxCell id="oMTs-e_EntcNB7B6bXQJ-46" value="Button" style="swimlane;fontStyle=0;childLayout=stackLayout;horizontal=1;startSize=26;fillColor=none;horizontalStack=0;resizeParent=1;resizeParentMax=0;resizeLast=0;collapsible=1;marginBottom=0;fontSize=9;" parent="1" vertex="1">
          <mxGeometry x="-590" y="794" width="132" height="150" as="geometry" />
        </mxCell>
        <mxCell id="oMTs-e_EntcNB7B6bXQJ-52" value="" style="endArrow=none;html=1;fontSize=9;" parent="oMTs-e_EntcNB7B6bXQJ-46" edge="1">
          <mxGeometry width="50" height="50" relative="1" as="geometry">
            <mxPoint x="116" y="100" as="sourcePoint" />
            <mxPoint x="16" y="100" as="targetPoint" />
          </mxGeometry>
        </mxCell>
        <mxCell id="oMTs-e_EntcNB7B6bXQJ-49" value="- label: string&#xa;- ButtonClicked: bool&#xa;- window: Window&#xa;+ Event(): delegate&#xa;+ ClickEvent: Event&#xa;+ strSize: Vector2&#xa;+ relativePos: Vector2&#xa;+ color: Color&#xa;" style="text;strokeColor=none;fillColor=none;align=left;verticalAlign=top;spacingLeft=4;spacingRight=4;overflow=hidden;rotatable=0;points=[[0,0.5],[1,0.5]];portConstraint=eastwest;fontStyle=0" parent="oMTs-e_EntcNB7B6bXQJ-46" vertex="1">
          <mxGeometry y="26" width="132" height="124" as="geometry" />
        </mxCell>
        <mxCell id="oMTs-e_EntcNB7B6bXQJ-53" value="Window" style="swimlane;fontStyle=0;childLayout=stackLayout;horizontal=1;startSize=26;fillColor=none;horizontalStack=0;resizeParent=1;resizeParentMax=0;resizeLast=0;collapsible=1;marginBottom=0;fontSize=9;" parent="1" vertex="1">
          <mxGeometry x="-100" y="794" width="130" height="130" as="geometry" />
        </mxCell>
        <mxCell id="oMTs-e_EntcNB7B6bXQJ-56" value="+ delete: boolean&#xa;+ minDim: Vector2&#xa;- handleHeight: float&#xa;- border: float&#xa;- dragged: bool [ ]&#xa;- title: string&#xa;- clickoffset: Vector2&#xa;" style="text;strokeColor=none;fillColor=none;align=left;verticalAlign=top;spacingLeft=4;spacingRight=4;overflow=hidden;rotatable=0;points=[[0,0.5],[1,0.5]];portConstraint=eastwest;" parent="oMTs-e_EntcNB7B6bXQJ-53" vertex="1">
          <mxGeometry y="26" width="130" height="104" as="geometry" />
        </mxCell>
        <mxCell id="oMTs-e_EntcNB7B6bXQJ-57" value="Textfield" style="swimlane;fontStyle=0;childLayout=stackLayout;horizontal=1;startSize=26;fillColor=none;horizontalStack=0;resizeParent=1;resizeParentMax=0;resizeLast=0;collapsible=1;marginBottom=0;fontSize=9;" parent="1" vertex="1">
          <mxGeometry x="-450" y="794" width="130" height="160" as="geometry" />
        </mxCell>
        <mxCell id="oMTs-e_EntcNB7B6bXQJ-58" value="- content: string&#xa;- lastChar: string&#xa;- dim: Vector2&#xa;- relativePos: Vector2&#xa;- window: WIndow&#xa;- width: float&#xa;- txtHeight: float&#xa;- selected: bool&#xa;+ color: Color" style="text;strokeColor=none;fillColor=none;align=left;verticalAlign=top;spacingLeft=4;spacingRight=4;overflow=hidden;rotatable=0;points=[[0,0.5],[1,0.5]];portConstraint=eastwest;" parent="oMTs-e_EntcNB7B6bXQJ-57" vertex="1">
          <mxGeometry y="26" width="130" height="134" as="geometry" />
        </mxCell>
        <mxCell id="oMTs-e_EntcNB7B6bXQJ-65" value="Canvas" style="swimlane;fontStyle=0;childLayout=stackLayout;horizontal=1;startSize=26;fillColor=none;horizontalStack=0;resizeParent=1;resizeParentMax=0;resizeLast=0;collapsible=1;marginBottom=0;fontSize=9;" parent="1" vertex="1">
          <mxGeometry x="1230" y="750" width="110" height="110" as="geometry" />
        </mxCell>
        <mxCell id="oMTs-e_EntcNB7B6bXQJ-68" value="- canvas: Texture2D&#xa;- pos: Vector2&#xa;- dim: Vector2&#xa;- pixels: UInt32 [ ]&#xa;- rnd: Random&#xa; " style="text;strokeColor=none;fillColor=none;align=left;verticalAlign=top;spacingLeft=4;spacingRight=4;overflow=hidden;rotatable=0;points=[[0,0.5],[1,0.5]];portConstraint=eastwest;" parent="oMTs-e_EntcNB7B6bXQJ-65" vertex="1">
          <mxGeometry y="26" width="110" height="84" as="geometry" />
        </mxCell>
        <mxCell id="oMTs-e_EntcNB7B6bXQJ-70" value="TestWindow" style="swimlane;fontStyle=0;childLayout=stackLayout;horizontal=1;startSize=26;fillColor=none;horizontalStack=0;resizeParent=1;resizeParentMax=0;resizeLast=0;collapsible=1;marginBottom=0;fontSize=9;" parent="1" vertex="1">
          <mxGeometry x="-100" y="1030" width="140" height="70" as="geometry" />
        </mxCell>
        <mxCell id="oMTs-e_EntcNB7B6bXQJ-71" value="- testBtn: Button&#xa;- testField: Textfield&#xa;" style="text;strokeColor=none;fillColor=none;align=left;verticalAlign=top;spacingLeft=4;spacingRight=4;overflow=hidden;rotatable=0;points=[[0,0.5],[1,0.5]];portConstraint=eastwest;" parent="oMTs-e_EntcNB7B6bXQJ-70" vertex="1">
          <mxGeometry y="26" width="140" height="44" as="geometry" />
        </mxCell>
        <mxCell id="oMTs-e_EntcNB7B6bXQJ-74" value="ObjManager" style="swimlane;fontStyle=0;childLayout=stackLayout;horizontal=1;startSize=26;fillColor=none;horizontalStack=0;resizeParent=1;resizeParentMax=0;resizeLast=0;collapsible=1;marginBottom=0;fontSize=9;" parent="1" vertex="1">
          <mxGeometry x="1056" y="401" width="160" height="80" as="geometry" />
        </mxCell>
        <mxCell id="oMTs-e_EntcNB7B6bXQJ-75" value="+ offset: Vector2&#xa;+ Windows: List &lt;Window&gt;&#xa;+ canvas: Canvas&#xa;" style="text;strokeColor=none;fillColor=none;align=left;verticalAlign=top;spacingLeft=4;spacingRight=4;overflow=hidden;rotatable=0;points=[[0,0.5],[1,0.5]];portConstraint=eastwest;" parent="oMTs-e_EntcNB7B6bXQJ-74" vertex="1">
          <mxGeometry y="26" width="160" height="54" as="geometry" />
        </mxCell>
        <mxCell id="oMTs-e_EntcNB7B6bXQJ-78" value="Main" style="swimlane;fontStyle=0;childLayout=stackLayout;horizontal=1;startSize=26;fillColor=none;horizontalStack=0;resizeParent=1;resizeParentMax=0;resizeLast=0;collapsible=1;marginBottom=0;fontSize=9;" parent="1" vertex="1">
          <mxGeometry x="1031" y="250" width="210" height="70" as="geometry" />
        </mxCell>
        <mxCell id="oMTs-e_EntcNB7B6bXQJ-81" value="- graphics: GraphicsDeviceManager&#xa;- om: ObjManager" style="text;strokeColor=none;fillColor=none;align=left;verticalAlign=top;spacingLeft=4;spacingRight=4;overflow=hidden;rotatable=0;points=[[0,0.5],[1,0.5]];portConstraint=eastwest;" parent="oMTs-e_EntcNB7B6bXQJ-78" vertex="1">
          <mxGeometry y="26" width="210" height="44" as="geometry" />
        </mxCell>
        <mxCell id="8yuUoWHYda7rtjH7de3u-8" value="" style="endArrow=diamondThin;endFill=1;endSize=24;html=1;exitX=0.5;exitY=0;exitDx=0;exitDy=0;" parent="1" source="oMTs-e_EntcNB7B6bXQJ-42" edge="1">
          <mxGeometry width="160" relative="1" as="geometry">
            <mxPoint x="205" y="611" as="sourcePoint" />
            <mxPoint x="590" y="492" as="targetPoint" />
            <Array as="points" />
          </mxGeometry>
        </mxCell>
        <mxCell id="8yuUoWHYda7rtjH7de3u-14" value="" style="endArrow=diamondThin;endFill=1;endSize=24;html=1;entryX=0.758;entryY=1.012;entryDx=0;entryDy=0;entryPerimeter=0;exitX=0.5;exitY=0;exitDx=0;exitDy=0;" parent="1" source="oMTs-e_EntcNB7B6bXQJ-65" target="oMTs-e_EntcNB7B6bXQJ-75" edge="1">
          <mxGeometry width="160" relative="1" as="geometry">
            <mxPoint x="780" y="760" as="sourcePoint" />
            <mxPoint x="460" y="590" as="targetPoint" />
            <Array as="points">
              <mxPoint x="1285" y="630" />
              <mxPoint x="1177" y="630" />
            </Array>
          </mxGeometry>
        </mxCell>
        <mxCell id="8yuUoWHYda7rtjH7de3u-19" value="" style="endArrow=diamondThin;endFill=1;endSize=24;html=1;exitX=0.75;exitY=0;exitDx=0;exitDy=0;entryX=0.225;entryY=0.988;entryDx=0;entryDy=0;entryPerimeter=0;" parent="1" source="oMTs-e_EntcNB7B6bXQJ-53" target="oMTs-e_EntcNB7B6bXQJ-75" edge="1">
          <mxGeometry width="160" relative="1" as="geometry">
            <mxPoint x="110" y="840" as="sourcePoint" />
            <mxPoint x="270" y="840" as="targetPoint" />
            <Array as="points">
              <mxPoint x="-2" y="670" />
              <mxPoint x="1092" y="670" />
            </Array>
          </mxGeometry>
        </mxCell>
        <mxCell id="8yuUoWHYda7rtjH7de3u-21" value="" style="endArrow=diamondThin;endFill=1;endSize=24;html=1;entryX=0.25;entryY=1;entryDx=0;entryDy=0;exitX=0.75;exitY=0;exitDx=0;exitDy=0;" parent="1" source="oMTs-e_EntcNB7B6bXQJ-57" target="oMTs-e_EntcNB7B6bXQJ-53" edge="1">
          <mxGeometry width="160" relative="1" as="geometry">
            <mxPoint x="-290" y="990" as="sourcePoint" />
            <mxPoint x="-130" y="990" as="targetPoint" />
            <Array as="points">
              <mxPoint x="-352" y="760" />
              <mxPoint x="-230" y="760" />
              <mxPoint x="-230" y="980" />
              <mxPoint x="-67" y="980" />
            </Array>
          </mxGeometry>
        </mxCell>
        <mxCell id="8yuUoWHYda7rtjH7de3u-22" value="" style="endArrow=diamondThin;endFill=1;endSize=24;html=1;entryX=0.367;entryY=1.068;entryDx=0;entryDy=0;entryPerimeter=0;" parent="1" target="oMTs-e_EntcNB7B6bXQJ-71" edge="1">
          <mxGeometry width="160" relative="1" as="geometry">
            <mxPoint x="-190" y="980" as="sourcePoint" />
            <mxPoint x="-220" y="1080" as="targetPoint" />
            <Array as="points">
              <mxPoint x="-190" y="1160" />
              <mxPoint x="-49" y="1160" />
            </Array>
          </mxGeometry>
        </mxCell>
        <mxCell id="8yuUoWHYda7rtjH7de3u-23" value="" style="endArrow=diamondThin;endFill=1;endSize=24;html=1;entryX=0.852;entryY=1.068;entryDx=0;entryDy=0;entryPerimeter=0;exitX=0.75;exitY=0;exitDx=0;exitDy=0;" parent="1" source="oMTs-e_EntcNB7B6bXQJ-46" target="oMTs-e_EntcNB7B6bXQJ-71" edge="1">
          <mxGeometry width="160" relative="1" as="geometry">
            <mxPoint y="1240" as="sourcePoint" />
            <mxPoint x="60" y="1070" as="targetPoint" />
            <Array as="points">
              <mxPoint x="-491" y="750" />
              <mxPoint x="-650" y="750" />
              <mxPoint x="-650" y="1220" />
              <mxPoint x="19" y="1220" />
            </Array>
          </mxGeometry>
        </mxCell>
        <mxCell id="8yuUoWHYda7rtjH7de3u-25" value="" style="endArrow=diamondThin;endFill=1;endSize=24;html=1;" parent="1" edge="1">
          <mxGeometry width="160" relative="1" as="geometry">
            <mxPoint x="-650" y="1000" as="sourcePoint" />
            <mxPoint x="10" y="930" as="targetPoint" />
            <Array as="points">
              <mxPoint x="10" y="1000" />
            </Array>
          </mxGeometry>
        </mxCell>
        <mxCell id="8yuUoWHYda7rtjH7de3u-26" value="" style="endArrow=diamondThin;endFill=1;endSize=24;html=1;exitX=0.881;exitY=-0.043;exitDx=0;exitDy=0;exitPerimeter=0;entryX=0.425;entryY=0.988;entryDx=0;entryDy=0;entryPerimeter=0;" parent="1" source="oMTs-e_EntcNB7B6bXQJ-70" target="oMTs-e_EntcNB7B6bXQJ-75" edge="1">
          <mxGeometry width="160" relative="1" as="geometry">
            <mxPoint x="-100" y="710" as="sourcePoint" />
            <mxPoint x="570" y="570" as="targetPoint" />
            <Array as="points">
              <mxPoint x="23" y="960" />
              <mxPoint x="240" y="960" />
              <mxPoint x="1124" y="960" />
              <mxPoint x="1124" y="680" />
            </Array>
          </mxGeometry>
        </mxCell>
        <mxCell id="8yuUoWHYda7rtjH7de3u-27" value="" style="endArrow=diamondThin;endFill=1;endSize=24;html=1;entryX=0.698;entryY=1.038;entryDx=0;entryDy=0;entryPerimeter=0;exitX=0.75;exitY=0;exitDx=0;exitDy=0;" parent="1" source="oMTs-e_EntcNB7B6bXQJ-74" target="oMTs-e_EntcNB7B6bXQJ-81" edge="1">
          <mxGeometry width="160" relative="1" as="geometry">
            <mxPoint x="1144" y="395" as="sourcePoint" />
            <mxPoint x="1186" y="250" as="targetPoint" />
          </mxGeometry>
        </mxCell>
        <mxCell id="8yuUoWHYda7rtjH7de3u-28" value="" style="endArrow=diamondThin;endFill=1;endSize=24;html=1;exitX=0.75;exitY=0;exitDx=0;exitDy=0;" parent="1" source="oMTs-e_EntcNB7B6bXQJ-38" edge="1">
          <mxGeometry width="160" relative="1" as="geometry">
            <mxPoint x="-30" y="331" as="sourcePoint" />
            <mxPoint x="80" y="337" as="targetPoint" />
            <Array as="points">
              <mxPoint x="-12" y="371" />
              <mxPoint x="80" y="371" />
            </Array>
          </mxGeometry>
        </mxCell>
        <mxCell id="8yuUoWHYda7rtjH7de3u-29" value="" style="endArrow=diamondThin;endFill=1;endSize=24;html=1;exitX=0.5;exitY=0;exitDx=0;exitDy=0;" parent="1" source="oMTs-e_EntcNB7B6bXQJ-26" edge="1">
          <mxGeometry width="160" relative="1" as="geometry">
            <mxPoint x="-30" y="331" as="sourcePoint" />
            <mxPoint x="130" y="331" as="targetPoint" />
          </mxGeometry>
        </mxCell>
        <mxCell id="1zlHRWSW7twrEcBegud7-1" value="Extends" style="endArrow=block;endSize=16;endFill=0;html=1;exitX=0.667;exitY=0.006;exitDx=0;exitDy=0;exitPerimeter=0;" edge="1" parent="1" source="oMTs-e_EntcNB7B6bXQJ-57">
          <mxGeometry width="160" relative="1" as="geometry">
            <mxPoint x="-490" y="730" as="sourcePoint" />
            <mxPoint x="-359" y="660" as="targetPoint" />
          </mxGeometry>
        </mxCell>
        <mxCell id="1zlHRWSW7twrEcBegud7-2" value="Extends" style="endArrow=block;endSize=16;endFill=0;html=1;exitX=0.5;exitY=0;exitDx=0;exitDy=0;" edge="1" parent="1" source="oMTs-e_EntcNB7B6bXQJ-53">
          <mxGeometry width="160" relative="1" as="geometry">
            <mxPoint x="-120" y="740" as="sourcePoint" />
            <mxPoint x="-285" y="660" as="targetPoint" />
            <Array as="points">
              <mxPoint x="-35" y="730" />
              <mxPoint x="-285" y="730" />
            </Array>
          </mxGeometry>
        </mxCell>
        <mxCell id="1zlHRWSW7twrEcBegud7-3" value="Extends" style="endArrow=block;endSize=16;endFill=0;html=1;entryX=0.148;entryY=1;entryDx=0;entryDy=0;entryPerimeter=0;exitX=0.924;exitY=-0.022;exitDx=0;exitDy=0;exitPerimeter=0;" edge="1" parent="1" source="oMTs-e_EntcNB7B6bXQJ-46" target="oMTs-e_EntcNB7B6bXQJ-10">
          <mxGeometry width="160" relative="1" as="geometry">
            <mxPoint x="-120" y="740" as="sourcePoint" />
            <mxPoint x="40" y="740" as="targetPoint" />
            <Array as="points">
              <mxPoint x="-470" y="720" />
              <mxPoint x="-389" y="720" />
            </Array>
          </mxGeometry>
        </mxCell>
        <mxCell id="1zlHRWSW7twrEcBegud7-8" value="Extends" style="endArrow=block;endSize=16;endFill=0;html=1;exitX=0.405;exitY=-0.043;exitDx=0;exitDy=0;exitPerimeter=0;entryX=0.477;entryY=1.029;entryDx=0;entryDy=0;entryPerimeter=0;" edge="1" parent="1" source="oMTs-e_EntcNB7B6bXQJ-70" target="oMTs-e_EntcNB7B6bXQJ-56">
          <mxGeometry width="160" relative="1" as="geometry">
            <mxPoint x="-30" y="940" as="sourcePoint" />
            <mxPoint x="-50" y="930" as="targetPoint" />
            <Array as="points" />
          </mxGeometry>
        </mxCell>
        <mxCell id="1zlHRWSW7twrEcBegud7-11" value="" style="endArrow=diamondThin;endFill=1;endSize=24;html=1;entryX=0.93;entryY=1.024;entryDx=0;entryDy=0;entryPerimeter=0;exitX=0.689;exitY=-0.049;exitDx=0;exitDy=0;exitPerimeter=0;" edge="1" parent="1" source="oMTs-e_EntcNB7B6bXQJ-34" target="oMTs-e_EntcNB7B6bXQJ-32">
          <mxGeometry width="160" relative="1" as="geometry">
            <mxPoint x="560" y="350" as="sourcePoint" />
            <mxPoint x="720" y="350" as="targetPoint" />
            <Array as="points">
              <mxPoint x="554" y="370" />
              <mxPoint x="197" y="370" />
            </Array>
          </mxGeometry>
        </mxCell>
        <mxCell id="1zlHRWSW7twrEcBegud7-12" value="" style="endArrow=classic;html=1;exitX=0;exitY=0.25;exitDx=0;exitDy=0;entryX=1.014;entryY=0.639;entryDx=0;entryDy=0;entryPerimeter=0;" edge="1" parent="1" source="oMTs-e_EntcNB7B6bXQJ-78" target="oMTs-e_EntcNB7B6bXQJ-32">
          <mxGeometry width="50" height="50" relative="1" as="geometry">
            <mxPoint x="610" y="420" as="sourcePoint" />
            <mxPoint x="220" y="268" as="targetPoint" />
          </mxGeometry>
        </mxCell>
        <mxCell id="1zlHRWSW7twrEcBegud7-13" value="" style="endArrow=classic;html=1;entryX=0.067;entryY=1.009;entryDx=0;entryDy=0;entryPerimeter=0;exitX=0.75;exitY=0;exitDx=0;exitDy=0;" edge="1" parent="1" source="oMTs-e_EntcNB7B6bXQJ-9" target="oMTs-e_EntcNB7B6bXQJ-32">
          <mxGeometry width="50" height="50" relative="1" as="geometry">
            <mxPoint x="70" y="570" as="sourcePoint" />
            <mxPoint x="120" y="520" as="targetPoint" />
            <Array as="points">
              <mxPoint x="-305" y="360" />
              <mxPoint x="33" y="360" />
            </Array>
          </mxGeometry>
        </mxCell>
        <mxCell id="1zlHRWSW7twrEcBegud7-14" value="" style="endArrow=none;html=1;exitX=0.072;exitY=-0.019;exitDx=0;exitDy=0;exitPerimeter=0;" edge="1" parent="1" source="oMTs-e_EntcNB7B6bXQJ-57">
          <mxGeometry width="50" height="50" relative="1" as="geometry">
            <mxPoint x="70" y="570" as="sourcePoint" />
            <mxPoint x="-440" y="360" as="targetPoint" />
          </mxGeometry>
        </mxCell>
        <mxCell id="1zlHRWSW7twrEcBegud7-15" value="" style="endArrow=none;html=1;" edge="1" parent="1">
          <mxGeometry width="50" height="50" relative="1" as="geometry">
            <mxPoint x="-560" y="794" as="sourcePoint" />
            <mxPoint x="-290" y="360" as="targetPoint" />
            <Array as="points">
              <mxPoint x="-560" y="360" />
            </Array>
          </mxGeometry>
        </mxCell>
        <mxCell id="1zlHRWSW7twrEcBegud7-16" value="" style="endArrow=none;html=1;exitX=0.128;exitY=-0.013;exitDx=0;exitDy=0;exitPerimeter=0;" edge="1" parent="1" source="oMTs-e_EntcNB7B6bXQJ-53">
          <mxGeometry width="50" height="50" relative="1" as="geometry">
            <mxPoint x="70" y="570" as="sourcePoint" />
            <mxPoint x="-240" y="360" as="targetPoint" />
            <Array as="points">
              <mxPoint x="-83" y="640" />
              <mxPoint x="-240" y="640" />
            </Array>
          </mxGeometry>
        </mxCell>
        <mxCell id="1zlHRWSW7twrEcBegud7-17" value="" style="endArrow=none;html=1;exitX=0.129;exitY=-0.062;exitDx=0;exitDy=0;exitPerimeter=0;" edge="1" parent="1" source="oMTs-e_EntcNB7B6bXQJ-70">
          <mxGeometry width="50" height="50" relative="1" as="geometry">
            <mxPoint x="-80" y="1020" as="sourcePoint" />
            <mxPoint x="-150" y="640" as="targetPoint" />
            <Array as="points">
              <mxPoint x="-82" y="1010" />
              <mxPoint x="-150" y="1010" />
            </Array>
          </mxGeometry>
        </mxCell>
        <mxCell id="1zlHRWSW7twrEcBegud7-18" value="" style="endArrow=none;html=1;exitX=0;exitY=0.5;exitDx=0;exitDy=0;" edge="1" parent="1" source="oMTs-e_EntcNB7B6bXQJ-75">
          <mxGeometry width="50" height="50" relative="1" as="geometry">
            <mxPoint x="510" y="410" as="sourcePoint" />
            <mxPoint x="730" y="270" as="targetPoint" />
            <Array as="points">
              <mxPoint x="730" y="454" />
            </Array>
          </mxGeometry>
        </mxCell>
        <mxCell id="1zlHRWSW7twrEcBegud7-19" value="hat&amp;nbsp; Zugriff&amp;nbsp; auf &amp;gt;" style="text;html=1;strokeColor=none;fillColor=none;align=center;verticalAlign=middle;whiteSpace=wrap;rounded=0;" vertex="1" parent="1">
          <mxGeometry x="-320" y="332" width="190" height="20" as="geometry" />
        </mxCell>
        <mxCell id="1zlHRWSW7twrEcBegud7-20" value="hat&amp;nbsp; Zugriff&amp;nbsp; auf &amp;lt;" style="text;html=1;strokeColor=none;fillColor=none;align=center;verticalAlign=middle;whiteSpace=wrap;rounded=0;" vertex="1" parent="1">
          <mxGeometry x="400" y="240" width="140" height="20" as="geometry" />
        </mxCell>
        <mxCell id="1zlHRWSW7twrEcBegud7-21" value="1" style="text;html=1;strokeColor=none;fillColor=none;align=center;verticalAlign=middle;whiteSpace=wrap;rounded=0;" vertex="1" parent="1">
          <mxGeometry x="50" y="332" width="40" height="20" as="geometry" />
        </mxCell>
        <mxCell id="1zlHRWSW7twrEcBegud7-22" value="1" style="text;html=1;strokeColor=none;fillColor=none;align=center;verticalAlign=middle;whiteSpace=wrap;rounded=0;" vertex="1" parent="1">
          <mxGeometry x="95" y="332" width="40" height="20" as="geometry" />
        </mxCell>
        <mxCell id="1zlHRWSW7twrEcBegud7-23" value="1" style="text;html=1;strokeColor=none;fillColor=none;align=center;verticalAlign=middle;whiteSpace=wrap;rounded=0;" vertex="1" parent="1">
          <mxGeometry x="140" y="332" width="40" height="20" as="geometry" />
        </mxCell>
        <mxCell id="1zlHRWSW7twrEcBegud7-24" value="" style="endArrow=diamondThin;endFill=1;endSize=24;html=1;exitX=0.636;exitY=-0.083;exitDx=0;exitDy=0;exitPerimeter=0;entryX=0.75;entryY=0;entryDx=0;entryDy=0;" edge="1" parent="1" source="oMTs-e_EntcNB7B6bXQJ-13" target="1zlHRWSW7twrEcBegud7-23">
          <mxGeometry width="160" relative="1" as="geometry">
            <mxPoint x="319.03999999999996" y="404.68399999999997" as="sourcePoint" />
            <mxPoint x="172.3800000000001" y="335.312" as="targetPoint" />
            <Array as="points">
              <mxPoint x="319" y="391" />
              <mxPoint x="172" y="391" />
            </Array>
          </mxGeometry>
        </mxCell>
        <mxCell id="1zlHRWSW7twrEcBegud7-26" value="1" style="text;html=1;strokeColor=none;fillColor=none;align=center;verticalAlign=middle;whiteSpace=wrap;rounded=0;" vertex="1" parent="1">
          <mxGeometry x="170" y="332" width="40" height="20" as="geometry" />
        </mxCell>
        <mxCell id="1zlHRWSW7twrEcBegud7-27" value="1" style="text;html=1;strokeColor=none;fillColor=none;align=center;verticalAlign=middle;whiteSpace=wrap;rounded=0;" vertex="1" parent="1">
          <mxGeometry x="-40" y="389" width="40" height="20" as="geometry" />
        </mxCell>
        <mxCell id="1zlHRWSW7twrEcBegud7-28" value="1" style="text;html=1;strokeColor=none;fillColor=none;align=center;verticalAlign=middle;whiteSpace=wrap;rounded=0;" vertex="1" parent="1">
          <mxGeometry x="310" y="391" width="40" height="20" as="geometry" />
        </mxCell>
        <mxCell id="1zlHRWSW7twrEcBegud7-29" value="1" style="text;html=1;strokeColor=none;fillColor=none;align=center;verticalAlign=middle;whiteSpace=wrap;rounded=0;" vertex="1" parent="1">
          <mxGeometry x="520" y="381" width="40" height="20" as="geometry" />
        </mxCell>
        <mxCell id="1zlHRWSW7twrEcBegud7-30" value="1" style="text;html=1;strokeColor=none;fillColor=none;align=center;verticalAlign=middle;whiteSpace=wrap;rounded=0;" vertex="1" parent="1">
          <mxGeometry x="-10" y="1100" width="40" height="20" as="geometry" />
        </mxCell>
        <mxCell id="1zlHRWSW7twrEcBegud7-31" value="1" style="text;html=1;strokeColor=none;fillColor=none;align=center;verticalAlign=middle;whiteSpace=wrap;rounded=0;" vertex="1" parent="1">
          <mxGeometry x="-85" y="1100" width="40" height="20" as="geometry" />
        </mxCell>
        <mxCell id="1zlHRWSW7twrEcBegud7-33" value="1" style="text;html=1;strokeColor=none;fillColor=none;align=center;verticalAlign=middle;whiteSpace=wrap;rounded=0;" vertex="1" parent="1">
          <mxGeometry x="-100" y="924" width="40" height="20" as="geometry" />
        </mxCell>
        <mxCell id="1zlHRWSW7twrEcBegud7-34" value="1" style="text;html=1;strokeColor=none;fillColor=none;align=center;verticalAlign=middle;whiteSpace=wrap;rounded=0;" vertex="1" parent="1">
          <mxGeometry x="-20" y="924" width="40" height="20" as="geometry" />
        </mxCell>
        <mxCell id="1zlHRWSW7twrEcBegud7-35" value="0...*" style="text;html=1;strokeColor=none;fillColor=none;align=center;verticalAlign=middle;whiteSpace=wrap;rounded=0;" vertex="1" parent="1">
          <mxGeometry x="-530" y="760" width="40" height="50" as="geometry" />
        </mxCell>
        <mxCell id="1zlHRWSW7twrEcBegud7-36" value="0...*" style="text;html=1;strokeColor=none;fillColor=none;align=center;verticalAlign=middle;whiteSpace=wrap;rounded=0;" vertex="1" parent="1">
          <mxGeometry x="-350" y="760" width="40" height="50" as="geometry" />
        </mxCell>
        <mxCell id="1zlHRWSW7twrEcBegud7-37" value="1" style="text;html=1;strokeColor=none;fillColor=none;align=center;verticalAlign=middle;whiteSpace=wrap;rounded=0;" vertex="1" parent="1">
          <mxGeometry x="1056" y="481" width="40" height="20" as="geometry" />
        </mxCell>
        <mxCell id="1zlHRWSW7twrEcBegud7-38" value="1" style="text;html=1;strokeColor=none;fillColor=none;align=center;verticalAlign=middle;whiteSpace=wrap;rounded=0;" vertex="1" parent="1">
          <mxGeometry x="1116" y="481" width="40" height="20" as="geometry" />
        </mxCell>
        <mxCell id="1zlHRWSW7twrEcBegud7-39" value="1" style="text;html=1;strokeColor=none;fillColor=none;align=center;verticalAlign=middle;whiteSpace=wrap;rounded=0;" vertex="1" parent="1">
          <mxGeometry x="1170" y="481" width="40" height="20" as="geometry" />
        </mxCell>
        <mxCell id="1zlHRWSW7twrEcBegud7-40" value="0...*" style="text;html=1;strokeColor=none;fillColor=none;align=center;verticalAlign=middle;whiteSpace=wrap;rounded=0;" vertex="1" parent="1">
          <mxGeometry x="1300" y="720" width="40" height="20" as="geometry" />
        </mxCell>
        <mxCell id="1zlHRWSW7twrEcBegud7-41" value="&lt;div&gt;0...*&lt;/div&gt;" style="text;html=1;strokeColor=none;fillColor=none;align=center;verticalAlign=middle;whiteSpace=wrap;rounded=0;" vertex="1" parent="1">
          <mxGeometry y="774" width="40" height="20" as="geometry" />
        </mxCell>
        <mxCell id="1zlHRWSW7twrEcBegud7-42" value="1" style="text;html=1;strokeColor=none;fillColor=none;align=center;verticalAlign=middle;whiteSpace=wrap;rounded=0;" vertex="1" parent="1">
          <mxGeometry x="30" y="1010" width="40" height="20" as="geometry" />
        </mxCell>
        <mxCell id="1zlHRWSW7twrEcBegud7-43" value="1" style="text;html=1;strokeColor=none;fillColor=none;align=center;verticalAlign=middle;whiteSpace=wrap;rounded=0;" vertex="1" parent="1">
          <mxGeometry x="210" y="240" width="40" height="20" as="geometry" />
        </mxCell>
        <mxCell id="1zlHRWSW7twrEcBegud7-44" value="1" style="text;html=1;strokeColor=none;fillColor=none;align=center;verticalAlign=middle;whiteSpace=wrap;rounded=0;" vertex="1" parent="1">
          <mxGeometry x="991" y="240" width="40" height="20" as="geometry" />
        </mxCell>
        <mxCell id="1zlHRWSW7twrEcBegud7-45" value="1" style="text;html=1;strokeColor=none;fillColor=none;align=center;verticalAlign=middle;whiteSpace=wrap;rounded=0;" vertex="1" parent="1">
          <mxGeometry x="1016" y="431" width="40" height="20" as="geometry" />
        </mxCell>
        <mxCell id="1zlHRWSW7twrEcBegud7-46" value="1" style="text;html=1;strokeColor=none;fillColor=none;align=center;verticalAlign=middle;whiteSpace=wrap;rounded=0;" vertex="1" parent="1">
          <mxGeometry x="-10" y="332" width="40" height="20" as="geometry" />
        </mxCell>
        <mxCell id="1zlHRWSW7twrEcBegud7-47" value="1" style="text;html=1;strokeColor=none;fillColor=none;align=center;verticalAlign=middle;whiteSpace=wrap;rounded=0;" vertex="1" parent="1">
          <mxGeometry x="1096" y="521" width="40" height="20" as="geometry" />
        </mxCell>
        <mxCell id="1zlHRWSW7twrEcBegud7-49" value="1" style="text;html=1;strokeColor=none;fillColor=none;align=center;verticalAlign=middle;whiteSpace=wrap;rounded=0;" vertex="1" parent="1">
          <mxGeometry x="560" y="491" width="40" height="20" as="geometry" />
        </mxCell>
        <mxCell id="1zlHRWSW7twrEcBegud7-50" value="Text" style="text;html=1;strokeColor=none;fillColor=none;align=center;verticalAlign=middle;whiteSpace=wrap;rounded=0;" vertex="1" parent="1">
          <mxGeometry x="590" y="520" width="40" height="20" as="geometry" />
        </mxCell>
        <mxCell id="1zlHRWSW7twrEcBegud7-51" value="Menu" style="swimlane;fontStyle=0;childLayout=stackLayout;horizontal=1;startSize=26;fillColor=none;horizontalStack=0;resizeParent=1;resizeParentMax=0;resizeLast=0;collapsible=1;marginBottom=0;" vertex="1" parent="1">
          <mxGeometry x="750" y="526" width="140" height="52" as="geometry" />
        </mxCell>
        <mxCell id="1zlHRWSW7twrEcBegud7-52" value="+ field: type" style="text;strokeColor=none;fillColor=none;align=left;verticalAlign=top;spacingLeft=4;spacingRight=4;overflow=hidden;rotatable=0;points=[[0,0.5],[1,0.5]];portConstraint=eastwest;" vertex="1" parent="1zlHRWSW7twrEcBegud7-51">
          <mxGeometry y="26" width="140" height="26" as="geometry" />
        </mxCell>
      </root>
    </mxGraphModel>
  </diagram>
</mxfile>
